# xmcd
#
# Track frame offsets:
# 150
# 16906
# 32813
# 53881
# 71097
# 87233
# 107082
# 124138
#
# Disc length: 1890 seconds
#
#
# Revision: 0
# Processed by: cddbd v1.5.2PL0 Copyright (c) Steve Scherf et al.
# Submitted via: FreeRIP 2.945 
#
DISCID=67076008
DTITLE=Rose Royce - Golden Touch
DYEAR=1900
DGENRE=Soul
TTITLE0=And You Wish For Yesterday
TTITLE1=I Wanna Make It With You
TTITLE2=Funkin' Around
TTITLE3=Golden Touch
TTITLE4=Love Is In The Air
TTITLE5=You're A Winner
TTITLE6=Would You Please Be Mine
TTITLE7=Help Yourself
EXTD=
EXTT0=
EXTT1=
EXTT2=
EXTT3=
EXTT4=
EXTT5=
EXTT6=
EXTT7=
PLAYORDER=
